<svg xmlns="http://www.w3.org/2000/svg" width="800" height="320" viewBox="0 0 800 320" style="background-color:#f7f4ed">
<rect width="800" height="320" fill="#f7f4ed" rx="6"/>
<text x="400.0" y="26" text-anchor="middle" font-family="system-ui, -apple-system, Segoe UI, sans-serif" font-size="16" font-weight="600" fill="#3b3a36">PyPI Downloads Trend (90 days)</text>
<line x1="60" y1="224.0" x2="770" y2="224.0" stroke="#e0dcd3" stroke-width="1" stroke-dasharray="3,3" />
<line x1="60" y1="178.0" x2="770" y2="178.0" stroke="#e0dcd3" stroke-width="1" stroke-dasharray="3,3" />
<line x1="60" y1="132.0" x2="770" y2="132.0" stroke="#e0dcd3" stroke-width="1" stroke-dasharray="3,3" />
<line x1="60" y1="86.0" x2="770" y2="86.0" stroke="#e0dcd3" stroke-width="1" stroke-dasharray="3,3" />
<line x1="60" y1="40.0" x2="770" y2="40.0" stroke="#e0dcd3" stroke-width="1" stroke-dasharray="3,3" />

<path d="M 60.0 258.5 L 68.0 256.6 L 76.0 259.8 L 83.9 158.1 L 91.9 167.1 L 99.9 178.6 L 107.9 95.6 L 115.8 72.1 L 123.8 65.2 L 131.8 56.9 L 139.8 73.3 L 147.8 75.7 L 155.7 79.1 L 163.7 167.7 L 171.7 187.1 L 179.7 184.8 L 187.6 191.8 L 195.6 233.0 L 203.6 239.0 L 211.6 238.5 L 219.6 243.3 L 227.5 245.5 L 235.5 253.1 L 243.5 248.3 L 251.5 249.6 L 259.4 243.6 L 267.4 201.8 L 275.4 196.9 L 283.4 193.9 L 291.3 194.9 L 299.3 198.0 L 307.3 197.2 L 315.3 199.1 L 323.3 240.5 L 331.2 241.1 L 339.2 240.3 L 347.2 238.6 L 355.2 235.8 L 363.1 235.1 L 371.1 239.0 L 379.1 210.3 L 387.1 214.1 L 395.1 216.8 L 403.0 219.3 L 411.0 225.1 L 419.0 221.7 L 427.0 221.0 L 434.9 249.1 L 442.9 251.6 L 450.9 250.4 L 458.9 251.6 L 466.9 249.7 L 474.8 248.6 L 482.8 248.4 L 490.8 249.0 L 498.8 246.8 L 506.7 248.0 L 514.7 247.5 L 522.7 249.0 L 530.7 248.6 L 538.7 250.4 L 546.6 252.7 L 554.6 254.2 L 562.6 258.0 L 570.6 257.8 L 578.5 257.4 L 586.5 263.1 L 594.5 262.3 L 602.5 256.7 L 610.4 257.1 L 618.4 256.4 L 626.4 257.6 L 634.4 258.3 L 642.4 251.6 L 650.3 248.4 L 658.3 253.7 L 666.3 250.7 L 674.3 246.2 L 682.2 245.1 L 690.2 242.6 L 698.2 250.6 L 706.2 253.8 L 714.2 251.5 L 722.1 253.7 L 730.1 258.0 L 738.1 258.3 L 746.1 261.0 L 754.0 256.5 L 762.0 252.6 L 770.0 255.4 L 770.0 270.0 L 60.0 270.0 Z" fill="rgba(193, 122, 69, 0.12)" stroke="none"/>
<path d="M 60.0 258.5 L 68.0 256.6 L 76.0 259.8 L 83.9 158.1 L 91.9 167.1 L 99.9 178.6 L 107.9 95.6 L 115.8 72.1 L 123.8 65.2 L 131.8 56.9 L 139.8 73.3 L 147.8 75.7 L 155.7 79.1 L 163.7 167.7 L 171.7 187.1 L 179.7 184.8 L 187.6 191.8 L 195.6 233.0 L 203.6 239.0 L 211.6 238.5 L 219.6 243.3 L 227.5 245.5 L 235.5 253.1 L 243.5 248.3 L 251.5 249.6 L 259.4 243.6 L 267.4 201.8 L 275.4 196.9 L 283.4 193.9 L 291.3 194.9 L 299.3 198.0 L 307.3 197.2 L 315.3 199.1 L 323.3 240.5 L 331.2 241.1 L 339.2 240.3 L 347.2 238.6 L 355.2 235.8 L 363.1 235.1 L 371.1 239.0 L 379.1 210.3 L 387.1 214.1 L 395.1 216.8 L 403.0 219.3 L 411.0 225.1 L 419.0 221.7 L 427.0 221.0 L 434.9 249.1 L 442.9 251.6 L 450.9 250.4 L 458.9 251.6 L 466.9 249.7 L 474.8 248.6 L 482.8 248.4 L 490.8 249.0 L 498.8 246.8 L 506.7 248.0 L 514.7 247.5 L 522.7 249.0 L 530.7 248.6 L 538.7 250.4 L 546.6 252.7 L 554.6 254.2 L 562.6 258.0 L 570.6 257.8 L 578.5 257.4 L 586.5 263.1 L 594.5 262.3 L 602.5 256.7 L 610.4 257.1 L 618.4 256.4 L 626.4 257.6 L 634.4 258.3 L 642.4 251.6 L 650.3 248.4 L 658.3 253.7 L 666.3 250.7 L 674.3 246.2 L 682.2 245.1 L 690.2 242.6 L 698.2 250.6 L 706.2 253.8 L 714.2 251.5 L 722.1 253.7 L 730.1 258.0 L 738.1 258.3 L 746.1 261.0 L 754.0 256.5 L 762.0 252.6 L 770.0 255.4" fill="none" stroke="#c17a45" stroke-width="2.5" stroke-linecap="round" stroke-linejoin="round"/>
<text x="50" y="274.0" text-anchor="end" font-family="system-ui, -apple-system, Segoe UI, sans-serif" font-size="11" fill="#5c5a55">0</text>
<text x="50" y="228.0" text-anchor="end" font-family="system-ui, -apple-system, Segoe UI, sans-serif" font-size="11" fill="#5c5a55">60</text>
<text x="50" y="182.0" text-anchor="end" font-family="system-ui, -apple-system, Segoe UI, sans-serif" font-size="11" fill="#5c5a55">120</text>
<text x="50" y="136.0" text-anchor="end" font-family="system-ui, -apple-system, Segoe UI, sans-serif" font-size="11" fill="#5c5a55">180</text>
<text x="50" y="90.0" text-anchor="end" font-family="system-ui, -apple-system, Segoe UI, sans-serif" font-size="11" fill="#5c5a55">240</text>
<text x="50" y="44.0" text-anchor="end" font-family="system-ui, -apple-system, Segoe UI, sans-serif" font-size="11" fill="#5c5a55">300</text>
<text x="60.0" y="292" text-anchor="middle" font-family="system-ui, -apple-system, Segoe UI, sans-serif" font-size="11" fill="#5c5a55">Jun 12</text>
<text x="203.59550561797752" y="292" text-anchor="middle" font-family="system-ui, -apple-system, Segoe UI, sans-serif" font-size="11" fill="#5c5a55">Jun 30</text>
<text x="347.19101123595505" y="292" text-anchor="middle" font-family="system-ui, -apple-system, Segoe UI, sans-serif" font-size="11" fill="#5c5a55">Jul 18</text>
<text x="482.80898876404495" y="292" text-anchor="middle" font-family="system-ui, -apple-system, Segoe UI, sans-serif" font-size="11" fill="#5c5a55">Aug 04</text>
<text x="626.4044943820224" y="292" text-anchor="middle" font-family="system-ui, -apple-system, Segoe UI, sans-serif" font-size="11" fill="#5c5a55">Aug 22</text>
<text x="770.0" y="292" text-anchor="middle" font-family="system-ui, -apple-system, Segoe UI, sans-serif" font-size="11" fill="#5c5a55">Sep 09</text>
<line x1="60" y1="40" x2="60" y2="270" stroke="#e0dcd3" stroke-width="1"/>
<line x1="60" y1="270" x2="770" y2="270" stroke="#e0dcd3" stroke-width="1"/>
</svg>
